# xmcd
#
# Track frame offsets:
#	150
#	26975
#	59950
#	81659
#	114164
#	135977
#	208783
#
# Disc length: 3024 seconds
#
# Revision: 0
# Processed by: cddbd v1.5.1PL0 Copyright (c) Steve Scherf et al.
# Submitted via: EasyCDDAExtractor 8.0.2.1
#
DISCID=680bce07
DTITLE=Black Sabbath - Miami 31-08-71
DYEAR=1971
DGENRE=Hard Rock
TTITLE0=NIB
TTITLE1=War Pigs
TTITLE2=Sweet Leaf
TTITLE3=Iron Man
TTITLE4=Children Of The Grave
TTITLE5=Wicked World
TTITLE6=Paranoid Bonus Track
EXTD=
EXTT0=
EXTT1=
EXTT2=
EXTT3=
EXTT4=
EXTT5=
EXTT6=
PLAYORDER=
